<?xml version="1.0" standalone="no"?>
<!DOCTYPE svg PUBLIC "-//W3C//DTD SVG 20010904//EN"
 "http://www.w3.org/TR/2001/REC-SVG-20010904/DTD/svg10.dtd">
<svg version="1.0" xmlns="http://www.w3.org/2000/svg"
 width="260.000000pt" height="260.000000pt" viewBox="0 0 260.000000 260.000000"
 preserveAspectRatio="xMidYMid meet">
<metadata>
Created by potrace 1.11, written by Peter Selinger 2001-2013
</metadata>
<g transform="translate(0.000000,260.000000) scale(0.100000,-0.100000)"
fill="#000000" stroke="none">
<path d="M608 2072 c-14 -3 -16 -46 -15 -385 0 -210 -3 -404 -7 -432 -17 -112
-77 -174 -169 -177 -56 -1 -92 7 -133 31 l-34 20 0 -128 0 -129 43 -15 c49
-16 195 -20 257 -6 110 25 208 101 257 200 52 105 55 133 58 594 l3 430 -122
0 c-67 0 -129 -1 -138 -3z"/>
<path d="M1134 2071 c-2 -2 -4 -276 -4 -608 l0 -603 139 0 138 0 -1 296 c-1
202 2 290 9 278 6 -10 93 -143 195 -296 l185 -277 173 -1 c94 0 172 1 172 3 0
1 -103 144 -229 317 l-229 315 23 31 c110 146 393 540 390 544 -2 3 -74 5
-160 5 l-156 -1 -146 -220 c-81 -120 -164 -248 -185 -284 -31 -52 -38 -60 -39
-40 0 14 -1 141 -1 283 -1 181 -4 257 -12 258 -41 4 -258 4 -262 0z"/>
</g>
</svg>
